<?xml version="1.0" encoding="UTF-8"?>
<svg width="1469px" height="534px" viewBox="0 0 1469 534" version="1.1" xmlns="http://www.w3.org/2000/svg" xmlns:xlink="http://www.w3.org/1999/xlink">
    <!-- Generator: Sketch 55.2 (78181) - https://sketchapp.com -->
    <title>Powered_by_Tingg</title>
    <desc>Created with Sketch.</desc>
    <g id="Page-1" stroke="none" stroke-width="1" fill="none" fill-rule="evenodd">
        <g id="Powered_by_Tingg" fill-rule="nonzero">
            <g id="Group" transform="translate(759.000000, 239.000000)" fill="#F65058">
                <path d="M354.7,97.5 C349.7,91.6 343.7,87.1 336.6,83.9 C329.5,80.7 321,79.1 311.1,79.1 C301.7,79.1 293.5,80.5 286.6,83.4 C282.5,85.1 278.5,87.6 274.5,91.1 C271.2,94 266,91.7 266,87.3 C266,84.5 263.7,82.1 260.8,82.1 L221.2,82.1 C218.4,82.1 216,84.4 216,87.3 L216,218.4 C216,221.3 218.3,223.6 221.2,223.6 L260.8,223.6 C263.6,223.6 266,221.3 266,218.4 L266,148 C266,138.6 268.2,131.4 272.8,126.4 C277.3,121.3 283.8,118.8 292.2,118.8 C295.3,118.8 298.3,119.3 301,120.2 C303.8,121.1 306.2,122.7 308.4,124.9 C311,127.5 312.8,130.9 313.8,135.2 C314.8,139.5 315.3,145.2 315.3,152.2 L315.3,218.4 C315.3,221.3 317.6,223.6 320.5,223.6 L360.1,223.6 C363,223.6 365.3,221.3 365.3,218.4 L365.3,133.7 C365.3,126.2 364.6,119.5 363.1,113.6 C361.5,107.6 358.8,102.2 354.7,97.5 Z" id="Path"></path>
                <path d="M703.8,81.5 L664.2,81.5 C661.4,81.5 659,83.8 659,86.7 L659,96.4 C647.6,83.9 633.5,77.7 616.8,77.7 C606.5,77.7 597,79.7 588.3,83.6 C579.6,87.6 572,93 565.7,99.9 C559.4,106.8 554.3,114.9 550.7,124.2 C550.1,125.8 549.5,127.4 549,129.1 L549,86.8 C549,84 546.7,81.6 543.8,81.6 L504.2,81.6 C501.3,81.6 499,83.9 499,86.8 L499,96.5 C487.6,84 473.5,77.8 456.8,77.8 C446.5,77.8 437,79.8 428.3,83.7 C419.6,87.7 412,93.1 405.7,100 C399.4,106.9 394.3,115 390.7,124.3 C387,133.6 385.2,143.6 385.2,154.5 C385.2,165.2 386.9,174.9 390.3,183.6 C393.7,192.3 398.5,199.8 404.6,206.1 C410.8,212.3 418.1,217.2 426.5,220.7 C434.9,224.2 444.2,225.9 454.3,225.9 C458.9,225.9 463.1,225.6 467,224.9 C470.9,224.3 474.5,223.2 478,221.7 C481.5,220.2 484.9,218.3 488.3,216.1 C491.7,213.8 495.2,210.9 498.9,207.4 L498.9,220.9 C498.9,231.4 496.1,239.6 490.5,245.4 C484.9,251.3 476.9,254.2 466.4,254.2 C455.5,254.2 448,250.5 444,243.1 C443.1,241.4 441.4,240.2 439.4,240.2 L393.1,240.2 C389.6,240.2 387.1,243.6 388.1,246.9 C389.7,252.1 392.1,256.9 395.2,261.5 C399.6,268 405.3,273.7 412.2,278.6 C419.1,283.5 427.1,287.3 436.3,290 C445.5,292.8 455.6,294.1 466.6,294.1 C476.3,294.1 485.4,293 493.8,290.8 C502.2,288.6 509.6,285.6 516.3,281.7 C522.9,277.8 528.6,273.3 533.3,268.1 C538,262.9 541.4,257.2 543.6,251.1 C545.3,246.3 546.5,240.8 547.5,234.6 C548.4,228.4 548.9,221.3 548.9,213.4 L548.9,179.8 C549.3,181.1 549.7,182.3 550.2,183.5 C553.6,192.2 558.4,199.7 564.5,206 C570.7,212.2 578,217.1 586.4,220.6 C594.9,224.1 604.1,225.8 614.2,225.8 C618.8,225.8 623,225.5 626.9,224.8 C630.8,224.2 634.4,223.1 637.9,221.6 C641.4,220.1 644.8,218.2 648.2,216 C651.6,213.7 655.1,210.8 658.8,207.3 L658.8,220.8 C658.8,231.3 656,239.5 650.4,245.3 C644.8,251.2 636.8,254.1 626.3,254.1 C615.4,254.1 607.9,250.4 603.9,243 C603,241.3 601.3,240.1 599.3,240.1 L553,240.1 C549.5,240.1 547,243.5 548,246.8 C549.6,252 552,256.8 555.1,261.4 C559.5,267.9 565.2,273.6 572.1,278.5 C579,283.4 587,287.2 596.2,289.9 C605.4,292.7 615.5,294 626.5,294 C636.2,294 645.3,292.9 653.7,290.7 C662.1,288.5 669.5,285.5 676.2,281.6 C682.8,277.7 688.5,273.2 693.1,268 C697.8,262.8 701.2,257.1 703.4,251 C705.1,246.2 706.3,240.7 707.3,234.5 C708.2,228.3 708.7,221.2 708.7,213.3 L708.7,86.6 C709,83.8 706.7,81.5 703.8,81.5 Z M499,164.3 C497.3,168.3 495,171.7 492.1,174.6 C489.3,177.5 485.9,179.8 481.9,181.5 C477.9,183.2 473.8,184 469.4,184 C464.8,184 460.5,183.2 456.6,181.5 C452.7,179.8 449.3,177.6 446.4,174.6 C443.6,171.7 441.3,168.2 439.6,164.3 C437.9,160.3 437.1,156.1 437.1,151.5 C437.1,147.1 438,143 439.7,139.1 C441.4,135.2 443.8,131.9 446.7,129 C449.6,126.1 453,123.9 456.9,122.1 C460.8,120.4 464.9,119.5 469.3,119.5 C473.5,119.5 477.6,120.3 481.6,122 C485.6,123.7 489,126 491.9,128.9 C494.8,131.8 497.2,135.2 498.9,139.1 C500.6,143 501.5,147.2 501.5,151.8 C501.6,156.2 500.7,160.3 499,164.3 Z M659,164.3 C657.3,168.3 655,171.7 652.1,174.6 C649.2,177.5 645.8,179.8 641.9,181.5 C637.9,183.2 633.8,184 629.4,184 C624.8,184 620.5,183.2 616.6,181.5 C612.6,179.8 609.2,177.6 606.4,174.6 C603.5,171.7 601.3,168.2 599.6,164.3 C597.9,160.3 597.1,156.1 597.1,151.5 C597.1,147.1 598,143 599.7,139.1 C601.5,135.2 603.8,131.9 606.7,129 C609.6,126.1 613,123.9 616.9,122.1 C620.8,120.4 624.9,119.5 629.3,119.5 C633.5,119.5 637.6,120.3 641.6,122 C645.5,123.7 649,126 651.9,128.9 C654.8,131.8 657.2,135.2 658.9,139.1 C660.6,143 661.5,147.2 661.5,151.8 C661.6,156.2 660.7,160.3 659,164.3 Z" id="Shape"></path>
                <path d="M143,20.7 L143,5.2 C143,2.4 140.7,0 137.8,0 L5.3,0 C2.5,0 0.1,2.3 0.1,5.2 L0.1,40.6 C0.1,43.5 2.4,45.8 5.3,45.8 L39.4,45.8 C42.2,45.8 44.6,48.1 44.6,51 L44.6,217.9 C44.6,220.7 46.9,223.1 49.8,223.1 L93.5,223.1 C96.3,223.1 98.7,220.8 98.7,217.9 L98.7,51 C98.7,48.1 101,45.8 103.9,45.8 L123.9,45.8 C124.8,34.2 132.4,24.6 143,20.7 Z" id="Path"></path>
                <path d="M176.7,81.5 L137.1,81.5 C134.3,81.5 131.9,83.8 131.9,86.7 L131.9,217.8 C131.9,220.7 134.2,223 137.1,223 L176.7,223 C179.5,223 181.9,220.7 181.9,217.8 L181.9,86.6 C181.9,83.8 179.6,81.5 176.7,81.5 Z" id="Path"></path>
                <path d="M135.2,50.9 C135.2,61.9 144.1,70.9 155.2,70.9 C166.2,70.9 175.2,62 175.2,50.9 C175.2,39.9 166.3,30.9 155.2,30.9 C144.2,30.9 135.2,39.9 135.2,50.9 Z" id="Path"></path>
            </g>
            <g id="Group" transform="translate(1169.000000, 0.000000)">
                <path d="M21,127.1 C48.7,131.2 76.6,123.5 95.5,106.3 C70.8,101.4 43,109.2 21,127.1 M119.7,99.6 C125.2,102.3 134.2,108.6 140.2,114.9 C146.6,121.6 151.8,129.4 155.7,138.1 L144.8,147.3 C141.5,138.7 136.7,131.1 130.6,124.7 C125,118.8 118.4,114.1 110.9,110.7 C65.9,157.7 5.5,137.6 5.5,137.6 C3.1,137 1.2,135.1 0.6,132.6 C-1.15629728e-13,130.1 0.7,127.5 2.5,125.7 C2.5,125.7 45.8,77 106.7,94.2 C106.7,94.3 111.1,95.3 119.7,99.6" id="Shape" fill="#FFC90D"></path>
                <path d="M277.8,156.3 C250.1,152.2 222.2,159.9 203.3,177.1 C227.9,182 255.7,174.3 277.8,156.3 M179.8,183.6 C174.3,180.9 165.3,174.6 159.3,168.3 C152.9,161.6 147.7,153.8 143.8,145.1 L154.7,135.9 C158,144.5 162.8,152.1 168.9,158.5 C174.5,164.4 181.1,169.1 188.6,172.4 C233.6,125.4 294,145.5 294,145.5 C296.4,146.1 298.3,148 298.9,150.5 C299.5,153 298.8,155.6 297,157.4 C297,157.4 253.7,206.1 192.8,188.9 C192.7,188.8 188.3,187.8 179.8,183.6" id="Shape" fill="#5D538B"></path>
                <path d="M73,250.1 C90.3,227.2 97.8,198.2 93,172.6 C76.5,192.3 69.1,221.3 73,250.1 M99.3,148.2 C104.3,144.6 114.1,139.6 122.3,137.4 C131.1,135 140.2,134.2 149.4,135.1 L151.7,149.5 C142.9,148.2 134.2,148.7 125.8,151 C118.1,153.1 110.9,156.7 104.4,161.8 C121,225.8 74.1,270.2 74.1,270.2 C72.4,272.1 69.9,272.8 67.5,272.1 C65.1,271.4 63.3,269.5 62.7,267 C62.7,267 43.8,203.6 88.6,157.4 C88.5,157.2 91.5,153.8 99.3,148.2" id="Shape" fill="#F65058"></path>
                <path d="M225.7,33.3 C208.4,56.2 200.9,85.2 205.7,110.8 C222.2,91.1 229.7,62.2 225.7,33.3 M199.4,136 C194.4,139.6 184.6,144.6 176.4,146.8 C167.6,149.2 158.5,150 149.3,149.1 L147,134.7 C155.8,136 164.5,135.5 172.9,133.2 C180.6,131.1 187.8,127.5 194.4,122.4 C177.8,58.4 224.7,14 224.7,14 C226.4,12.1 228.9,11.4 231.3,12.1 C233.7,12.8 235.5,14.7 236.1,17.2 C236.1,17.2 255,80.6 210.2,126.8 C210.3,126.9 207.2,130.4 199.4,136" id="Shape" fill="#6CD1EF"></path>
                <path d="M200.6,264.7 C190.2,237.7 169.8,216.5 146.1,207.9 C154.2,232.6 174.6,253.8 200.6,264.7 M128.8,190 C128.3,183.7 129.1,172.4 131.3,163.9 C133.7,154.8 137.6,146.2 143.2,138.1 L156.3,143.3 C150.5,150.9 146.6,159 144.4,167.6 C142.3,175.6 141.7,183.9 142.6,192.3 C204.2,209.3 217.7,273.8 217.7,273.8 C218.4,276.3 217.8,278.9 216,280.7 C214.2,282.5 211.7,283.2 209.3,282.5 C209.3,282.5 147.1,267.8 131,204.4 C130.9,204.4 129.6,199.9 128.8,190" id="Shape" fill="#3BD23D"></path>
                <path d="M97.3,18.8 C107,44 125.4,64.2 147.1,73.7 C148.9,74.5 150.8,72.7 150.1,70.8 C141,48.1 121.6,28.9 97.3,18.8 M169,93.4 C169.5,99.7 168.7,111 166.5,119.5 C164.3,128 160.7,136.1 155.9,143.6 C155.3,144.5 154.2,144.8 153.2,144.4 L144.4,140.9 C143.1,140.4 142.6,138.7 143.4,137.6 C148,130.9 151.4,123.6 153.4,115.8 C155.4,108.2 156,100.5 155.3,92.6 C155.2,91.7 154.6,90.9 153.7,90.7 C93.4,73 80.1,9.7 80.1,9.7 C79.4,7.2 80,4.6 81.8,2.7 C83.6,0.9 86.1,0.2 88.5,0.9 C88.5,0.9 150.7,15.6 166.8,79 C166.9,79.1 168.3,83.5 169,93.4" id="Shape" fill="#F984CA"></path>
            </g>
            <g id="Group" transform="translate(0.000000, 387.000000)" fill="#0D171A">
                <path d="M27.7005348,1 C34.5882353,1 42.0748663,1.88973384 48.3636364,7.37642586 C55.1016043,13.1596958 56,20.8707224 56,26.3574144 C56,36.1444867 52.2566845,41.6311787 49.2620321,44.7452471 C42.973262,51.121673 34.7379679,51.7148289 29.197861,51.7148289 L18.1176471,51.7148289 L18.1176471,79 L0,79 L0,1 L27.7005348,1 L27.7005348,1 Z M18.1176471,36.8859316 L24.5561497,36.8859316 C27.1016043,36.8859316 31.4438503,36.7376426 34.2887701,33.9201521 C35.9358289,32.2889734 37.2834225,29.6197719 37.2834225,26.2091255 C37.2834225,22.9467681 36.0855615,20.2775665 34.2887701,18.6463878 C31.5935829,16.1254753 27.7005348,15.6806084 24.1069519,15.6806084 L17.9679144,15.6806084 L17.9679144,36.8859316 L18.1176471,36.8859316 Z" id="Shape"></path>
                <path d="M144.671329,11.3551243 C152.188811,18.5241603 157,28.8296496 157,41.0767528 C157,51.531597 153.241259,62.285151 144.671329,70.4996714 C137.304196,77.5193525 127.381119,82 114.15035,82 C99.2657343,82 89.1923077,76.1751582 83.3286713,70.4996714 C75.8111888,63.4799903 71,52.8757912 71,41.2261077 C71,29.875134 76.1118881,18.5241603 83.1783217,11.5044792 C88.4405594,6.27705715 98.3636364,0.00415064665 114.15035,0.00415064665 C126.479021,-0.14520427 136.853147,3.73802357 144.671329,11.3551243 Z M96.7097902,23.3035177 C93.2517483,26.5893258 89.6433566,32.4141676 89.6433566,41.0767528 C89.6433566,48.2457888 92.048951,54.0706305 96.8601399,58.700633 C101.972028,63.4799903 107.685315,65.1228944 113.84965,65.1228944 C121.968531,65.1228944 127.531469,62.1357961 131.440559,58.4019231 C134.447552,55.4148248 138.356643,49.8886929 138.356643,40.9273979 C138.356643,32.8622324 135.048951,26.7386808 131.440559,23.3035177 C127.531469,19.5696448 121.216783,16.5825464 114,16.5825464 C107.234266,16.5825464 101.06993,19.12158 96.7097902,23.3035177 Z" id="Shape"></path>
                <polygon id="Path" points="183.393862 3 200.007673 54.6045627 216.621483 3 229.081841 3 245.695652 54.6045627 262.309463 3 281 3 254.44757 81 239.317136 81 223 33.6958175 206.682864 81 191.55243 81 165 3"></polygon>
                <polygon id="Path" points="341 16.2737643 314.925926 16.2737643 314.925926 31.3992395 339.666667 31.3992395 339.666667 46.5247148 314.925926 46.5247148 314.925926 63.8745247 341 63.8745247 341 79 297 79 297 1 341 1"></polygon>
                <path d="M388.605839,1.14828897 C398.712895,1.14828897 405.048662,4.41064639 408.819951,7.96958175 C412.138686,11.0836502 415.759124,16.7186312 415.759124,25.3193916 C415.759124,30.2129278 414.703163,36.2927757 409.574209,41.1863118 C406.858881,43.7072243 402.93674,46.0798479 398.562044,47.1178707 L423,79 L400.673966,79 L379.253041,48.3041825 L379.253041,79 L361,79 L361,1 L388.605839,1 L388.605839,1.14828897 Z M379.10219,36.5893536 L383.326034,36.5893536 C386.644769,36.5893536 391.170316,36.2927757 394.3382,33.1787072 C395.695864,31.8441065 397.355231,29.4714829 397.355231,25.6159696 C397.355231,21.1673004 395.243309,18.7946768 393.734793,17.608365 C390.717762,15.3840304 386.041363,15.0874525 383.627737,15.0874525 L379.403893,15.0874525 L379.403893,36.5893536 L379.10219,36.5893536 Z" id="Shape"></path>
                <polygon id="Path" points="483 16.2737643 456.925926 16.2737643 456.925926 31.3992395 481.666667 31.3992395 481.666667 46.5247148 456.925926 46.5247148 456.925926 63.8745247 483 63.8745247 483 79 439 79 439 1 483 1"></polygon>
                <path d="M527.770601,3 C538.066815,3 549.109131,4.48288973 558.659243,13.8250951 C565.672606,20.4980989 570,29.5437262 570,41.7034221 C570,54.0114068 565.821826,62.9087452 559.256125,69.2851711 C548.363029,80.1102662 534.933185,81 528.367483,81 L503,81 L503,3 L527.770601,3 Z M521.055679,65.8745247 L525.830735,65.8745247 C529.561247,65.8745247 537.768374,65.5779468 543.737194,60.6844106 C547.915367,57.1254753 551.347439,50.4524715 551.347439,41.851711 C551.347439,33.3992395 547.915367,28.0608365 544.930958,24.9467681 C539.111359,19.1634981 531.351893,18.2737643 525.830735,18.2737643 L521.055679,18.2737643 L521.055679,65.8745247 Z" id="Shape"></path>
                <path d="M648.21372,1.14828897 C652.424802,1.14828897 662.200528,1.44486692 668.366755,7.07984791 C673.480211,11.8250951 674.081794,18.3498099 674.081794,21.7604563 C674.081794,24.7262357 673.630607,28.2851711 671.525066,31.6958175 C669.569921,34.9581749 666.712401,36.5893536 664.907652,37.4790875 C668.667546,38.0722433 673.029024,40 675.886544,42.6692015 C678.443272,45.1901141 681,49.6387833 681,56.608365 C681,64.4676806 677.992084,69.3612167 674.833773,72.3269962 C668.366755,78.5551331 658.891821,79 653.92876,79 L624,79 L624,1 L648.21372,1 L648.21372,1.14828897 Z M642.047493,32.8821293 L645.055409,32.8821293 C647.612137,32.8821293 651.672823,32.5855513 654.229551,30.6577947 C655.883905,29.4714829 657.387863,27.0988593 657.387863,23.6882129 C657.387863,20.2775665 655.733509,18.2015209 654.379947,17.1634981 C651.823219,15.2357414 648.21372,15.2357414 644.905013,15.2357414 L642.047493,15.2357414 L642.047493,32.8821293 Z M642.047493,65.2091255 L646.408971,65.2091255 C651.07124,65.2091255 656.635884,65.0608365 659.944591,62.095057 C661.598945,60.6121673 662.501319,58.3878327 662.501319,55.5703422 C662.501319,52.4562738 661.147757,50.3802281 659.944591,49.1939163 C656.78628,46.2281369 650.620053,46.2281369 646.860158,46.2281369 L642.047493,46.2281369 L642.047493,65.2091255 Z" id="Shape"></path>
                <polygon id="Path" points="712.935743 44.6692015 685 3 706.248996 3 722 27.1711027 737.751004 3 759 3 731.064257 44.6692015 731.064257 81 713.084337 81 713.084337 44.6692015"></polygon>
            </g>
        </g>
    </g>
</svg>