<?xml version="1.0" encoding="UTF-8"?>
<svg width="549px" height="198px" viewBox="0 0 549 198" version="1.1" xmlns="http://www.w3.org/2000/svg" xmlns:xlink="http://www.w3.org/1999/xlink">
    <!-- Generator: Sketch 55.2 (78181) - https://sketchapp.com -->
    <title>Group 27</title>
    <desc>Created with Sketch.</desc>
    <defs>
        <polygon id="path-1" points="0.146581654 0.971704394 82.2088235 0.971704394 82.2088235 125.648453 0.146581654 125.648453"></polygon>
        <polygon id="path-3" points="0 0.967485288 63.8694275 0.967485288 63.8694275 66.4453 0 66.4453"></polygon>
    </defs>
    <g id="Page-1" stroke="none" stroke-width="1" fill="none" fill-rule="evenodd">
        <g id="Group-27">
            <g id="Group-3" transform="translate(466.000000, 55.000000)">
                <mask id="mask-2" fill="white">
                    <use xlink:href="#path-1"></use>
                </mask>
                <g id="Clip-2"></g>
                <path d="M67.1782941,43.7984 C67.1782941,39.0677333 67.2894706,34.3370667 67.1094706,29.6064 C67.0565294,28.1824 66.5800588,26.3370667 65.6112353,25.4624 C62.7047647,22.8597333 59.6818235,20.2410667 56.2988824,18.3530667 C40.2894706,9.4144 20.5688824,17.1637333 16.3547647,34.1130667 C15.3277059,38.2464 15.0788824,42.7210667 15.3118235,46.9930667 C16.1112353,61.8304 25.503,71.1370667 40.1835882,72.2997333 C48.8924118,72.9877333 56.2035882,69.9477333 62.8794706,64.5344 C65.9606471,62.0330667 67.6759412,59.3984 67.2577059,55.2330667 C66.8818235,51.4570667 67.1782941,47.6117333 67.1782941,43.7984 M67.3847647,75.3077333 C62.1541765,78.4170667 57.7971176,81.9157333 52.8365294,83.7984 C28.3671176,93.0837333 2.15064706,75.4890667 0.329470588,48.8810667 C-0.628764706,34.9504 2.00241176,22.1664 12.4212353,12.0757333 C27.0435882,-2.0896 48.6012353,-2.7456 64.2718235,10.3584 C65.0394706,10.9984 65.8441765,11.5797333 66.9453529,12.4330667 C67.0671176,10.8437333 67.0935882,9.6864 67.2577059,8.5504 C67.7977059,4.58773333 70.4977059,2.0704 74.2724118,1.92106667 C78.2112353,1.77173333 81.2924118,4.24106667 82.0124118,8.20906667 C82.1924118,9.23306667 82.1818235,10.2997333 82.1818235,11.3450667 C82.1924118,35.5157333 82.2718235,59.6917333 82.113,83.8677333 C82.0865294,88.4224 81.5677059,93.0730667 80.5247647,97.5050667 C76.1888824,115.979733 62.4665294,126.2944 43.3706471,125.617067 C32.2053529,125.2224 21.3947647,123.083733 11.2565294,118.1504 C6.64535294,115.905067 5.03064706,112.2624 6.75652941,108.3744 C8.47711765,104.475733 12.3259412,103.371733 17.043,105.601067 C26.2177059,109.921067 35.853,111.729067 45.9224118,110.961067 C57.6277059,110.065067 64.5418235,104.0544 66.4265294,92.4864 C67.3371176,86.9024 67.0935882,81.1317333 67.3847647,75.3077333" id="Fill-1" fill="#E80033" mask="url(#mask-2)"></path>
            </g>
            <path d="M443.0952,99.4358187 C443.0952,96.5644098 442.665957,93.6080794 443.185288,90.8322072 C444.563106,83.3591135 440.366061,79.4368008 434.860089,75.7427148 C420.403599,66.0138932 395.269021,69.9945894 391.591307,92.7110959 C390.971289,96.5378718 391.008384,100.550414 391.34224,104.424958 C392.412699,116.770424 400.594817,125.719029 412.539439,127.688147 C421.882104,129.227349 430.270895,127.024697 437.827696,121.101421 C441.595498,118.150399 443.863599,115.066686 443.185288,109.997933 C442.729548,106.532073 443.0952,102.960062 443.0952,99.4358187 M442.766644,130.352559 C425.448532,147.044946 404.288429,143.388013 391.983455,134.099721 C381.077497,125.857026 376.302828,114.408544 376.016666,101.091788 C375.661613,85.0628515 380.945014,71.5231768 395.194831,62.7709527 C409.709613,53.8435779 427.372178,55.414626 440.313068,66.5074995 C440.98078,67.0807198 441.653791,67.6592476 442.729548,68.5880767 C442.893827,67.6008641 443.052806,67.0435666 443.084602,66.4862691 C443.365464,60.8655261 445.940924,57.9622716 450.646702,57.9888096 C455.246494,58.0153476 457.991531,61.1999045 457.996831,66.645497 C458.00213,91.240892 458.00213,115.841595 457.986232,140.431682 C457.980933,142.650257 457.92794,144.890062 457.62058,147.087406 C454.356212,170.462054 439.947416,182.271453 416.365533,180.891479 C405.978906,180.281105 395.973828,178.025377 386.604666,173.391847 C382.577199,171.401499 381.194082,168.466399 382.333431,164.873157 C383.806636,160.266165 387.807607,158.716347 392.757153,161.072919 C401.17774,165.090768 410.027571,166.799814 419.306644,166.661816 C433.042429,166.460128 440.906589,159.899941 442.655358,146.360266 C443.317771,141.259667 442.766644,135.99984 442.766644,130.352559" id="Fill-4" fill="#E80033"></path>
            <path d="M309.674049,70.1764254 C316.621497,63.3114702 323.65432,58.3676381 332.714816,56.6380951 C352.068419,52.9342123 368.476561,65.722187 368.839408,85.4655853 C369.143559,101.717968 368.93012,117.975672 368.887432,134.233376 C368.87676,138.788726 365.58446,142.029623 361.283659,141.992371 C356.96685,141.95512 353.930677,138.772761 353.914669,133.999222 C353.861309,119.582816 353.903997,105.161089 353.893325,90.7393609 C353.877317,72.8798341 341.134994,64.6046361 325.036339,72.6616456 C319.57763,75.386341 315.154102,80.2397047 310.49579,84.3852861 C309.561994,85.2101451 309.43393,87.2430233 309.423258,88.7277694 C309.348554,102.883413 309.38057,117.044379 309.375234,131.205345 C309.375234,132.381434 309.417922,133.568167 309.289859,134.738934 C308.766932,139.198494 305.618704,142.093483 301.456638,141.997693 C297.363941,141.907225 294.295752,138.831299 294.082312,134.313201 C293.922233,130.784933 294.04496,127.235379 294.04496,123.696468 C294.039624,104.820502 294.028953,85.939214 294.060968,67.063248 C294.060968,65.5039985 294.130336,63.8915323 294.519863,62.4067861 C295.517691,58.644365 298.223034,56.7711369 302.112964,56.9999687 C305.858823,57.2234789 308.249342,59.2457137 309.007052,62.8697715 C309.444602,64.9931181 309.417922,67.2069331 309.674049,70.1764254" id="Fill-6" fill="#E80033"></path>
            <path d="M216.352782,70.8376592 C212.303123,70.8376592 208.870299,70.9863489 205.469658,70.758004 C204.230623,70.6783488 202.138746,69.8180728 202.036834,69.1011761 C201.85983,67.6673827 202.326479,65.6494513 203.313416,64.6511062 C209.513954,58.3955188 215.929043,52.3576555 222.274403,46.2454473 C223.406162,45.1515161 224.425282,43.8717227 225.728682,43.0326881 C226.73171,42.3901362 228.394484,41.7157223 229.220508,42.1246189 C230.244991,42.6344121 231.253383,44.2168952 231.328476,45.3904817 C231.580574,49.4210342 231.430388,53.4728281 231.430388,58.1353118 C237.620198,58.1353118 243.62764,58.1777946 249.640445,58.1193808 C253.180545,58.092829 255.438699,59.7177949 256.339815,63.0314507 C257.417936,66.9557964 254.559038,70.7102109 250.300191,70.8004868 C244.233748,70.9332454 238.161941,70.8323489 231.628848,70.8323489 C231.559119,72.4201423 231.446479,73.8008322 231.441115,75.1762118 C231.435752,89.3070423 231.435752,103.437873 231.435752,117.568703 C231.441115,127.838912 235.560504,131.248154 245.842884,129.432016 C247.398382,129.155878 248.894879,128.582361 250.455741,128.316843 C253.743742,127.759257 256.291541,129.012499 257.487666,132.055327 C258.673063,135.060983 257.788038,137.721466 254.97205,139.564156 C247.258924,144.630226 230.448815,143.998295 223.245249,138.300294 C218.079922,134.216638 216.401056,128.529257 216.374237,122.28429 C216.304508,106.709046 216.352782,91.1391116 216.352782,75.5744878 L216.352782,70.8376592 Z" id="Fill-8" fill="#E80033"></path>
            <path d="M281.975008,100.441171 C281.975008,111.825272 282.043366,123.214686 281.953975,134.6041 C281.90665,141.127515 275.896426,145.170119 270.911569,141.764982 C269.00281,140.463486 267.22025,137.382395 267.193958,135.087513 C266.925786,112.05901 266.994143,89.0198833 267.057243,65.9807562 C267.078276,60.8597697 270.043951,57.9167961 274.634437,58.0017917 C279.177599,58.0814751 281.927684,61.077571 281.959233,66.2729287 C282.022333,77.6623427 281.975008,89.0464444 281.975008,100.441171" id="Fill-10" fill="#E80033"></path>
            <path d="M273.938569,24 C279.246178,24 282.994611,27.5139834 283,32.4895351 C283.015969,37.4028924 279.166084,41.0308988 273.959928,40.9998016 C268.545526,40.9687044 265,37.6153899 265,32.5050837 C265,27.3947775 268.566884,24.0051829 273.938569,24" id="Fill-12" fill="#E80033"></path>
            <path d="M86.7255984,69.7427543 C84.4980285,72.3735556 79.8576988,76.4205342 75.6988629,78.8073499 C71.238432,81.3585906 66.397039,83.1142262 61.254051,84 L58,76.7652965 C63.0054183,76.1500284 67.6722037,74.6118583 71.8998244,72.1826103 C75.8258502,69.9283955 79.2492177,66.9793522 82.095851,63.3885206 C64.053064,32.1795795 83.3763068,1.99431711 83.3763068,1.99431711 C84.0429905,0.753172949 85.3234463,0 86.7255984,0 C88.1277504,0 89.4082063,0.753172949 90.0748899,1.99431711 C90.0748899,1.99431711 109.265854,32.5296458 91.365928,63.3885206 C91.365928,63.3885206 90.1965861,65.6533434 86.7255984,69.7427543 M86.7255984,12.3159689 C80.508509,26.8808486 80.508509,43.2066679 86.7255984,55.9840879 C92.9426877,43.2066679 92.9426877,26.8808486 86.7255984,12.3159689" id="Fill-14" fill="#FF0099"></path>
            <g id="Group-18" transform="translate(0.000000, 47.000000)">
                <mask id="mask-4" fill="white">
                    <use xlink:href="#path-3"></use>
                </mask>
                <g id="Clip-17"></g>
                <path d="M61.448,37.2998714 C62.632,40.5294429 63.864,46.5445857 63.8694275,51.3440143 C63.88,56.4764429 62.984,61.5401571 61.1973333,66.4453 L53.256,65.6947286 C55.2186667,61.0485857 56.2,56.2385857 56.1893333,51.3598714 C56.1786667,46.8564429 55.2986667,42.4323 53.5813333,38.1878714 C17.3146667,38.4627286 0.578666667,6.79601429 0.578666667,6.79601429 C-0.162666667,5.6173 -0.2,4.12144286 0.504,2.90572857 C1.19733333,1.6953 2.50933333,0.960585714 3.91733333,0.981728571 C3.91733333,0.981728571 40.1786667,-0.619842857 58.216,30.1430143 C58.216,30.1430143 59.608,32.2731571 61.448,37.2998714 M11.272,8.9843 C20.8933333,21.5537286 35.1546667,29.6038714 49.432,30.5130143 C41.3573333,18.8210143 27.1013333,10.7655857 11.272,8.9843" id="Fill-16" fill="#6600CC" mask="url(#mask-4)"></path>
            </g>
            <path d="M60.7596939,113.793745 C64.1583465,114.398478 69.9997807,116.350596 74.1896821,118.753612 C78.6610345,121.305158 82.622589,124.609968 86,128.604385 L81.4065086,135.091997 C78.3424108,131.071057 74.6357553,127.808684 70.3821291,125.379145 C66.4577474,123.12466 62.1775693,121.665876 57.626561,121.018706 C39.8367386,152.41705 3.95440147,150.990094 3.95440147,150.990094 C2.54714687,151.027226 1.24078976,150.311096 0.523886475,149.096326 C-0.187706419,147.886861 -0.171775235,146.38564 0.555748843,145.192089 C0.555748843,145.192089 17.1719739,113.130661 52.9162409,113.008654 C52.9162409,113.008654 55.4705407,112.860123 60.7596939,113.793745 M11.1712279,142.863339 C26.9006171,140.863478 40.9944047,132.604106 48.8803409,120.764082 C34.6856558,121.856844 20.5918681,130.121521 11.1712279,142.863339" id="Fill-19" fill="#FF9933"></path>
            <path d="M85.9810408,127.705603 C88.2066679,125.027484 92.8456255,120.895375 97.0340948,118.425731 C101.517527,115.790376 106.397817,113.967544 111.594522,113 L111.787589,113 L115,120.243218 C109.926643,120.932794 105.22333,122.547149 100.965142,125.048866 C97.0287318,127.374179 93.6018024,130.383723 90.7540724,134.050769 C109.470792,165.252734 90.2821322,195.941527 90.2821322,195.941527 C89.6224885,197.181694 88.3300159,197.978181 86.9141953,198 C85.4983747,198.020945 84.1951762,197.256532 83.4872659,196.016364 C83.4872659,196.016364 63.628237,165.514666 81.374261,134.173717 C81.374261,134.173717 82.5165708,131.869785 85.9810408,127.705603 M86.7479437,185.576509 C92.8509885,170.822796 92.6364702,154.374544 86.1687443,141.571955 C80.0388847,154.540256 80.2587659,170.993853 86.7479437,185.576509" id="Fill-21" fill="#E80033"></path>
            <path d="M111.536125,114.139736 C110.330548,110.926066 109.055928,104.911007 109.002819,100.122217 C108.944399,94.9845748 109.794145,89.9156456 111.536125,85 L119.454698,85.676562 C117.542769,90.3437825 116.597426,95.1642865 116.650535,100.037647 C116.703645,104.551584 117.617122,108.959808 119.353791,113.18832 C155.473318,112.622757 172.399201,144.141031 172.399201,144.141031 C173.163972,145.314443 173.195838,146.810279 172.51073,148.031262 C171.825622,149.241674 170.529759,149.992235 169.127678,149.976378 C169.127678,149.976378 133.040016,151.88978 114.81827,121.27535 C114.81827,121.27535 113.405567,119.150523 111.536125,114.139736 M161.745507,142.037346 C152.053089,129.547378 137.777352,121.624203 123.565346,120.831356 C131.706977,132.45448 145.966781,140.388226 161.745507,142.037346" id="Fill-23" fill="#00B3FF"></path>
            <path d="M90.6692509,63.5787271 C93.688346,67.6097825 97.3282393,70.8796545 101.498729,73.3454597 C105.414533,75.6558119 109.685836,77.1674577 114.217132,77.8482343 C132.252113,46.269847 168.088614,48.0173524 168.088614,48.0173524 C169.489389,47.9691084 170.799963,48.7195708 171.489739,49.9417525 C172.18482,51.1746551 172.168902,52.6863009 171.447291,53.8870408 C171.447291,53.8870408 154.56901,86.1515652 118.854547,85.9961122 C118.854547,85.9961122 116.312989,86.1086816 111.038858,85.1223595 C107.637733,84.4898269 101.817087,82.4635783 97.6412914,80.0084941 C93.2320329,77.4086777 89.3374532,74.0744803 86,70.0541459 C86,70.0541459 86.8648726,69.094626 88.3717672,67.0683774 C89.9582513,64.9295595 90.6692509,63.5787271 90.6692509,63.5787271 M160.814133,56.1598699 C145.076635,58.0521073 130.925622,66.2857523 122.961365,78.1913029 C137.149521,77.1888995 151.300534,68.9659753 160.814133,56.1598699" id="Fill-25" fill="#009933"></path>
        </g>
    </g>
</svg>